<svg id="Círculos" xmlns="http://www.w3.org/2000/svg" width="999.989" height="216.848" viewBox="0 0 724 157">
  <defs>
    <style>
      .cls-1 {
        fill: #02586d;
      }

      .cls-2 {
        fill: #0b7dbf;
        mix-blend-mode: difference;
      }

      .cls-2, .cls-3 {
        fill-rule: evenodd;
      }

      .cls-3 {
        fill: #fff;
      }
    </style>
  </defs>
  <circle id="Círculo_izquierdo" data-name="Círculo izquierdo" class="cls-1" cx="382.062" cy="75.109" r="72.25"/>
  <path id="Círculo_derecho" data-name="Círculo derecho" class="cls-2" d="M422.247,2.86A72.25,72.25,0,1,1,350,75.109,72.25,72.25,0,0,1,422.247,2.86Z"/>
  <path id="Forma" class="cls-3" d="M19.23,116.966a84.6,84.6,0,0,0,11.968.882,62.2,62.2,0,0,0,13.857-1.512,35.9,35.9,0,0,0,12.052-5.123,24.292,24.292,0,0,0,8.315-9.28,26.82,26.82,0,0,0,2.9-12.388,25.229,25.229,0,0,0-1.26-8.1,27.25,27.25,0,0,0-3.527-6.971,52.775,52.775,0,0,0-6.089-7.013Q53.62,63.678,45.265,56.791T35.648,48.9q-5.039-4.283-7.895-7.265a41.742,41.742,0,0,1-4.787-5.921,15.7,15.7,0,0,1-2.687-8.818,13.469,13.469,0,0,1,2.52-7.644,18.432,18.432,0,0,1,7.391-6.1,27.411,27.411,0,0,1,12.094-2.382q10.5,0,23.348,4.535-1.008-7.86-1.176-13.269A129.617,129.617,0,0,0,41.527-.486q-13.019,0-20.954,3.779A27.473,27.473,0,0,0,8.689,13.371,25.006,25.006,0,0,0,4.742,26.893a26.412,26.412,0,0,0,.588,5.585,22.755,22.755,0,0,0,1.638,4.955,33.408,33.408,0,0,0,2.981,4.955A50.549,50.549,0,0,0,14.736,48.1q2.854,2.982,6.383,6l6.215,5.291q9.322,7.9,14.4,12.388a59.764,59.764,0,0,1,7.139,7.139,19.216,19.216,0,0,1,2.981,5.207,16.109,16.109,0,0,1,.924,5.5,15.235,15.235,0,0,1-2.73,8.944,17.383,17.383,0,0,1-8.146,6.047,31.574,31.574,0,0,1-11.716,2.142,57.843,57.843,0,0,1-13.647-1.722,85.359,85.359,0,0,1-16-5.921Q1.3,105,1.635,112.977A157.271,157.271,0,0,0,19.23,116.966Zm82.81-76.174a77.634,77.634,0,0,1,9.913-2.1,73.976,73.976,0,0,1,11.213-.882,39.22,39.22,0,0,1,10.206,1.176,14.364,14.364,0,0,1,7.014,4.115,10.376,10.376,0,0,1,2.1,10.414,11.94,11.94,0,0,1-1.848,3.317,14.438,14.438,0,0,1-2.773,2.772,16.256,16.256,0,0,1-3.527,1.974q-2.016.841-4.621,1.722a64.343,64.343,0,0,1-6.3,1.722q-11.508,2.771-16.716,4.409a96.847,96.847,0,0,0-9.115,3.317,38.508,38.508,0,0,0-7.475,4.283,25.51,25.51,0,0,0-5.5,5.207,22.03,22.03,0,0,0-3.065,5.795A20.69,20.69,0,0,0,80.412,95,23.423,23.423,0,0,0,83.6,106.972a19.312,19.312,0,0,0,9.658,8.188q6.466,2.686,17.972,2.688,3.443,0,7.307-.294a93.355,93.355,0,0,0,9.994-1.47,88.977,88.977,0,0,1,2.688-9.994,62.721,62.721,0,0,1-10.33,2.534,58.746,58.746,0,0,1-7.391.489,32.343,32.343,0,0,1-9.784-1.3,13.894,13.894,0,0,1-6.761-4.662,12.25,12.25,0,0,1-2.687-7.894,14.783,14.783,0,0,1,1.093-5.627,13.543,13.543,0,0,1,3.193-4.367,26.444,26.444,0,0,1,5.633-4.031,53.013,53.013,0,0,1,9.16-3.7q2.69-.923,9.119-2.688t8.657-2.478q2.226-.712,4.076-1.512a24.2,24.2,0,0,0,3.32-1.722q1.47-.923,4.413-3.191l-1.275,27.127L139.873,116q4.961-.168,7.652-0.168,2.857,0,7.4.168,0-9.07.46-20.66T156.717,70.1q0.876-13.647.877-19.442a25.75,25.75,0,0,0-1.428-8.65,15.073,15.073,0,0,0-5.795-7.139,29.008,29.008,0,0,0-10.96-4.493,68.748,68.748,0,0,0-14.151-1.386,112.582,112.582,0,0,0-14.488.966,147.769,147.769,0,0,0-17.51,3.569q-0.84,7.224-1.6,10.918Q97.882,42.01,102.039,40.792Zm81.553,113q3.175,0,7.439.168v-8.315q0-3.612.343-11.757l1.025-33.258a62.991,62.991,0,0,0,6.008,7.81,26.806,26.806,0,0,0,6.135,4.7,35.183,35.183,0,0,0,8.615,3.4,40.587,40.587,0,0,0,10.337,1.3,38.194,38.194,0,0,0,16.305-3.4,33.357,33.357,0,0,0,12.479-10.12,46.254,46.254,0,0,0,7.69-15.243A61.991,61.991,0,0,0,262.49,71.4a50.976,50.976,0,0,0-5.373-23.642q-5.375-10.456-15.028-14.613t-22.752-4.157a131.622,131.622,0,0,0-16.582,1.05q-8.271,1.051-22.038,3.989Q180.548,57.715,179.069,95T175.9,153.961q4.764-.169,7.69-0.168h0ZM219.658,39.406A30.868,30.868,0,0,1,234.1,42.724a23.722,23.722,0,0,1,10.162,10.792,39.045,39.045,0,0,1,3.779,17.8,48.587,48.587,0,0,1-3.611,18.9q-3.612,8.651-10.037,13.017a24.9,24.9,0,0,1-14.319,4.368,26.607,26.607,0,0,1-10.918-2.352,25.683,25.683,0,0,1-9.2-6.929,23.814,23.814,0,0,1-5.207-10.12,51.232,51.232,0,0,1-1.3-11.758q0-1.764.168-6.089t0.5-11.212l0.42-8.734,0.588-6.383a73.488,73.488,0,0,1,24.523-4.619h0Zm59.474,117.326a38.789,38.789,0,0,0,8.071-.839,31.847,31.847,0,0,0,6.724-2.349,21.467,21.467,0,0,0,4.54-3.022,30.741,30.741,0,0,0,4.707-4.952A63.921,63.921,0,0,0,309.142,135l31.131-69.241q12.585-27.36,15.86-34.83-6.015.169-7.77,0.168-2.088,0-7.435-.168-1.514,4.281-2.229,6.253T337.228,41L319.653,82.038l-9.5,23.164q-2.106-7.552-4.209-14.1L293.23,52.577q-3.115-9.566-4.042-12.672t-2.273-8.981q-5.286.169-7.636,0.168-2.013,0-8.138-.168l13.123,36.453,17.921,50.985a99.8,99.8,0,0,1-4.592,10.276q-2.4,4.593-4.544,8.014a31.118,31.118,0,0,1-4.077,5.361,14.038,14.038,0,0,1-5.045,3.124,17.883,17.883,0,0,1-6.389,1.181,32.528,32.528,0,0,1-6.138-.714,33.154,33.154,0,0,1-7.818-2.729q0.84,4.922,1.428,12.01a60.484,60.484,0,0,0,14.122,1.847h0Zm127.391-48.711A35,35,0,0,1,389.9,104.2a24.98,24.98,0,0,1-10.918-11.254,35.974,35.974,0,0,1-3.7-16.251q0-2.435.336-7.055H439.7a33.757,33.757,0,0,0,.5-5.879,40.97,40.97,0,0,0-2.519-14.571,30.606,30.606,0,0,0-7.139-11.212,28.687,28.687,0,0,0-11.59-6.761,47.786,47.786,0,0,0-14.613-2.226q-14.782,0-24.4,6.131a37.772,37.772,0,0,0-14.4,16.839,56.25,56.25,0,0,0-4.787,23.222,55.128,55.128,0,0,0,2.6,17.049,37,37,0,0,0,8.567,14.32,32.335,32.335,0,0,0,14.319,8.776,65.247,65.247,0,0,0,18.855,2.52,98.684,98.684,0,0,0,11.8-.714,116.485,116.485,0,0,0,13.984-2.73q1.008-7.137,2.016-11.758-15.538,5.376-26.372,5.375h0ZM378.515,54.775a26.553,26.553,0,0,1,3.443-6.089,24.408,24.408,0,0,1,5.627-5.5,26.929,26.929,0,0,1,7.643-3.7,30.562,30.562,0,0,1,9.112-1.344,27.134,27.134,0,0,1,8.272,1.218,18.9,18.9,0,0,1,6.551,3.527,17.4,17.4,0,0,1,4.325,5.459,23.982,23.982,0,0,1,2.184,6.089,48.5,48.5,0,0,1,.672,8.231H376.289A56.464,56.464,0,0,1,378.515,54.775Zm83.4,61.057q2.591,0,7.275.168,0.512-28.723,1.794-41.908,1.008-11,3.447-16.629a27.964,27.964,0,0,1,9.922-12.178,29.627,29.627,0,0,1,16.733-4.619,31.127,31.127,0,0,1,12.444,2.394,16.366,16.366,0,0,1,8.072,6.8q2.522,4.409,2.522,11.8,0,5.124-.509,15.2l-1.1,19.568q-0.426,9.407-1.272,19.568,3.617-.168,7.737-0.168,3.365,0,7.149.168,0.083-7.306.25-12.346l1.665-35.189q0.247-5.039.332-8.146t0.084-4.2a37.347,37.347,0,0,0-1.471-10.666,19.785,19.785,0,0,0-5.8-8.944,25.538,25.538,0,0,0-11.047-5.753,55.231,55.231,0,0,0-21.884-1.176,50.805,50.805,0,0,0-7.854,1.806,28.025,28.025,0,0,0-11.678,6.929,26.788,26.788,0,0,0-3.361,3.989q-1.26,1.89-3.359,5.417l1.11-16.8q-4.541.085-7.315,0.084l-7.566-.084q-0.17,32.419-4.183,85.076,5.266-.168,7.86-0.168h0Zm130.728-8.986a33.226,33.226,0,0,1-4.528.336,13.084,13.084,0,0,1-5.786-1.344,8.647,8.647,0,0,1-4.151-4.409q-1.383-3.065-1.383-9.2l0.083-3.611,2.242-47.283h23.251q0.082-4.787.5-10.078h-23.34q0.083-6.466.664-18.9-5.445,1.344-13.319,2.855-0.423,11.338-.847,16.041H554.589Q554.337,37.81,554,41.338h11.221L563.17,78.963Q562.4,92.99,562.316,95.34t-0.086,3.275q0,7.14,2.436,11.3a14.138,14.138,0,0,0,7.013,6.047,32.061,32.061,0,0,0,12.051,1.89q3.024,0,6.383-.336a74.755,74.755,0,0,0,9.071-1.68q1.091-6.8,2.015-10.918A87.644,87.644,0,0,1,592.647,106.846Zm33.328-94.315q3.274,0,7.81.084,0.335-9.322.5-11.926-3.612.169-8.062,0.168-3.528,0-8.147-.168,0,4.031-.252,11.926,4.871-.083,8.147-0.084h0Zm-3.94,103.3q2.269,0,7.567.168,0-9.405.471-26.371t1.242-31.284q0.773-14.318,1.714-27.421l-7.564.084-7.733-.084-0.685,27.8L615.42,94.836,613.965,116q5.968-.168,8.07-0.168h0Zm45.975-75.04a77.634,77.634,0,0,1,9.913-2.1,73.976,73.976,0,0,1,11.213-.882,39.22,39.22,0,0,1,10.206,1.176,14.364,14.364,0,0,1,7.014,4.115,10.378,10.378,0,0,1,2.1,10.414,11.911,11.911,0,0,1-1.847,3.317,14.438,14.438,0,0,1-2.773,2.772,16.279,16.279,0,0,1-3.527,1.974q-2.016.841-4.621,1.722a64.37,64.37,0,0,1-6.3,1.722q-11.507,2.771-16.715,4.409a96.77,96.77,0,0,0-9.115,3.317,38.493,38.493,0,0,0-7.475,4.283,25.527,25.527,0,0,0-5.5,5.207,21.994,21.994,0,0,0-3.065,5.795A20.687,20.687,0,0,0,646.383,95a23.427,23.427,0,0,0,3.191,11.968,19.311,19.311,0,0,0,9.658,8.188q6.466,2.686,17.973,2.688,3.442,0,7.307-.294a93.391,93.391,0,0,0,9.994-1.47,89.241,89.241,0,0,1,2.687-9.994,62.7,62.7,0,0,1-10.33,2.534,58.731,58.731,0,0,1-7.39.489,32.35,32.35,0,0,1-9.785-1.3,13.9,13.9,0,0,1-6.76-4.662,12.248,12.248,0,0,1-2.688-7.894,14.794,14.794,0,0,1,1.093-5.627,13.551,13.551,0,0,1,3.193-4.367,26.472,26.472,0,0,1,5.632-4.031,53.061,53.061,0,0,1,9.161-3.7q2.689-.923,9.119-2.688T697.1,72.37q2.226-.712,4.076-1.512a24.26,24.26,0,0,0,3.32-1.722q1.47-.923,4.413-3.191l-1.276,27.127L705.844,116q4.96-.168,7.651-0.168,2.859,0,7.4.168,0-9.07.459-20.66T722.688,70.1q0.876-13.647.876-19.442a25.749,25.749,0,0,0-1.427-8.65,15.079,15.079,0,0,0-5.795-7.139,29.008,29.008,0,0,0-10.96-4.493,68.75,68.75,0,0,0-14.152-1.386,112.555,112.555,0,0,0-14.487.966,147.785,147.785,0,0,0-17.511,3.569q-0.84,7.224-1.6,10.918Q663.853,42.01,668.01,40.792Z"/>
</svg>
