<svg id="S" xmlns="http://www.w3.org/2000/svg" xmlns:xlink="http://www.w3.org/1999/xlink" width="999.841" height="999.841" viewBox="0 0 409 409">
  <defs>
    <style>
      .cls-1 {
        fill: #02586d;
      }

      .cls-2 {
        fill: #0b7dbf;
        mix-blend-mode: difference;
      }

      .cls-3 {
        fill: #fff;
        fill-rule: evenodd;
        filter: url(#filter);
      }
    </style>
    <filter id="filter" x="139" y="106" width="134" height="216" filterUnits="userSpaceOnUse">
      <feOffset result="offset" dy="9" in="SourceAlpha"/>
      <feGaussianBlur result="blur" stdDeviation="3.162"/>
      <feFlood result="flood" flood-opacity="0.51"/>
      <feComposite result="composite" operator="in" in2="blur"/>
      <feBlend result="blend" in="SourceGraphic"/>
    </filter>
  </defs>
  <circle id="Círculo_izquierdo" data-name="Círculo izquierdo" class="cls-1" cx="160" cy="204" r="160"/>
  <circle id="Círculo_derecho" data-name="Círculo derecho" class="cls-2" cx="249" cy="204" r="160"/>
  <path id="Forma" class="cls-3" d="M180.443,299.572a137.777,137.777,0,0,0,19.483,1.436,101.237,101.237,0,0,0,22.558-2.461,58.445,58.445,0,0,0,19.62-8.34A39.551,39.551,0,0,0,255.639,275.1a43.664,43.664,0,0,0,4.716-20.166,41.075,41.075,0,0,0-2.05-13.194,44.339,44.339,0,0,0-5.743-11.347,85.742,85.742,0,0,0-9.912-11.416q-6.222-6.153-19.824-17.364t-15.654-12.851q-8.2-6.974-12.852-11.826a68.107,68.107,0,0,1-7.793-9.639,25.568,25.568,0,0,1-4.375-14.356,21.929,21.929,0,0,1,4.1-12.443,30.008,30.008,0,0,1,12.031-9.929q7.927-3.877,19.688-3.878,17.088,0,38.007,7.383-1.639-12.8-1.914-21.6-22.148-4.1-37.324-4.1-21.193,0-34.111,6.152T163.285,130.93a40.709,40.709,0,0,0-6.426,22.011,43.045,43.045,0,0,0,.957,9.092,37.109,37.109,0,0,0,2.666,8.067,54.418,54.418,0,0,0,4.854,8.066,82.28,82.28,0,0,0,7.793,9.3q4.645,4.854,10.391,9.775l10.117,8.614q15.176,12.852,23.447,20.166a97.212,97.212,0,0,1,11.621,11.621,31.285,31.285,0,0,1,4.854,8.476,26.25,26.25,0,0,1,1.5,8.955,24.8,24.8,0,0,1-4.443,14.561q-4.444,6.357-13.262,9.844a51.408,51.408,0,0,1-19.072,3.486,94.158,94.158,0,0,1-22.217-2.8,138.941,138.941,0,0,1-26.045-9.638q1.232,9.57,1.778,22.558Q170.392,298.138,180.443,299.572Z"/>
</svg>
